<svg width="25" height="26" viewBox="0 0 25 26" fill="none" xmlns="http://www.w3.org/2000/svg">
<g id="ri:instagram-fill">
<path id="Vector" d="M13.6437 2.60913C14.7922 2.61219 15.3752 2.61832 15.8785 2.63261L16.0765 2.63976C16.3052 2.64792 16.5308 2.65813 16.8034 2.67038C17.8896 2.72143 18.6308 2.89294 19.2811 3.1451C19.9549 3.40441 20.5225 3.7556 21.0901 4.32219C21.6094 4.83237 22.0112 5.44974 22.2672 6.13122C22.5194 6.78153 22.6909 7.5227 22.7419 8.60995C22.7542 8.88151 22.7644 9.10713 22.7726 9.33683L22.7787 9.53488C22.794 10.0372 22.8001 10.6201 22.8022 11.7686L22.8032 12.5302V13.8676C22.8057 14.6122 22.7978 15.3569 22.7797 16.1013L22.7736 16.2993C22.7654 16.529 22.7552 16.7547 22.743 17.0262C22.6919 18.1135 22.5184 18.8536 22.2672 19.5049C22.0112 20.1864 21.6094 20.8038 21.0901 21.314C20.58 21.8333 19.9626 22.235 19.2811 22.4911C18.6308 22.7432 17.8896 22.9147 16.8034 22.9658L16.0765 22.9964L15.8785 23.0025C15.3752 23.0168 14.7922 23.024 13.6437 23.026L12.8821 23.027H11.5458C10.8008 23.0297 10.0558 23.0218 9.31104 23.0036L9.11298 22.9974C8.87063 22.9882 8.62834 22.9777 8.38611 22.9658C7.29987 22.9147 6.5587 22.7432 5.90737 22.4911C5.22626 22.2349 4.60925 21.8332 4.09937 21.314C3.57968 20.8039 3.17761 20.1865 2.92126 19.5049C2.66909 18.8546 2.49758 18.1135 2.44654 17.0262L2.41591 16.2993L2.41081 16.1013C2.39199 15.3569 2.38348 14.6122 2.38529 13.8676V11.7686C2.38246 11.024 2.38995 10.2793 2.40775 9.53488L2.41489 9.33683C2.42306 9.10713 2.43327 8.88151 2.44552 8.60995C2.49656 7.5227 2.66807 6.78255 2.92023 6.13122C3.17719 5.44946 3.57996 4.83206 4.10039 4.32219C4.60997 3.80312 5.22663 3.40142 5.90737 3.1451C6.5587 2.89294 7.29885 2.72143 8.38611 2.67038C8.65766 2.65813 8.8843 2.64792 9.11298 2.63976L9.31104 2.63363C10.0555 2.61549 10.8001 2.60767 11.5448 2.61015L13.6437 2.60913ZM12.5942 7.71361C11.2404 7.71361 9.9421 8.2514 8.98483 9.20867C8.02755 10.1659 7.48976 11.4643 7.48976 12.8181C7.48976 14.1719 8.02755 15.4702 8.98483 16.4275C9.9421 17.3848 11.2404 17.9226 12.5942 17.9226C13.948 17.9226 15.2464 17.3848 16.2036 16.4275C17.1609 15.4702 17.6987 14.1719 17.6987 12.8181C17.6987 11.4643 17.1609 10.1659 16.2036 9.20867C15.2464 8.2514 13.948 7.71361 12.5942 7.71361ZM12.5942 9.7554C12.9964 9.75533 13.3947 9.83448 13.7663 9.98833C14.1379 10.1422 14.4756 10.3677 14.76 10.6521C15.0445 10.9364 15.2701 11.274 15.4241 11.6456C15.5781 12.0171 15.6574 12.4154 15.6574 12.8176C15.6575 13.2198 15.5783 13.618 15.4245 13.9896C15.2706 14.3613 15.0451 14.6989 14.7608 14.9834C14.4764 15.2678 14.1388 15.4935 13.7673 15.6474C13.3957 15.8014 12.9975 15.8807 12.5953 15.8808C11.783 15.8808 11.004 15.5581 10.4296 14.9837C9.85525 14.4094 9.53257 13.6304 9.53257 12.8181C9.53257 12.0058 9.85525 11.2268 10.4296 10.6524C11.004 10.0781 11.783 9.7554 12.5953 9.7554M17.955 6.18226C17.6165 6.18226 17.2919 6.31671 17.0526 6.55603C16.8133 6.79535 16.6788 7.11994 16.6788 7.45838C16.6788 7.79683 16.8133 8.12142 17.0526 8.36073C17.2919 8.60005 17.6165 8.7345 17.955 8.7345C18.2934 8.7345 18.618 8.60005 18.8573 8.36073C19.0966 8.12142 19.2311 7.79683 19.2311 7.45838C19.2311 7.11994 19.0966 6.79535 18.8573 6.55603C18.618 6.31671 18.2934 6.18226 17.955 6.18226Z" fill="#5E6282"/>
</g>
</svg>
