<svg width="25" height="26" viewBox="0 0 25 26" fill="none" xmlns="http://www.w3.org/2000/svg">
<g id="ic:twotone-tiktok">
<path id="Vector" d="M17.1344 6.5093C16.4366 5.71261 16.052 4.68948 16.0523 3.63037H12.8977V16.2895C12.8734 16.9745 12.5842 17.6234 12.091 18.0995C11.5978 18.5755 10.9391 18.8416 10.2536 18.8417C8.80391 18.8417 7.59925 17.6575 7.59925 16.1874C7.59925 14.4314 9.29394 13.1145 11.0397 13.6556V10.4295C7.51758 9.95992 4.43448 12.6959 4.43448 16.1874C4.43448 19.587 7.25215 22.0065 10.2434 22.0065C13.449 22.0065 16.0523 19.4032 16.0523 16.1874V9.76595C17.3314 10.6846 18.8672 11.1775 20.4421 11.1748V8.02022C20.4421 8.02022 18.5228 8.1121 17.1344 6.5093Z" fill="#5E6282"/>
</g>
</svg>
