<svg width="22" height="17" viewBox="0 0 22 17" fill="none" xmlns="http://www.w3.org/2000/svg">
<path d="M5.93124 5.72827L10.9312 9.32336L15.9312 5.72827" stroke="#C2C2C2" stroke-width="1.5" stroke-linecap="round" stroke-linejoin="round"/>
<path d="M0.931244 13.9457V3.67397C0.931244 3.12912 1.14196 2.60659 1.51703 2.22133C1.8921 1.83607 2.40081 1.61963 2.93124 1.61963H18.9312C19.4617 1.61963 19.9704 1.83607 20.3455 2.22133C20.7205 2.60659 20.9312 3.12912 20.9312 3.67397V13.9457C20.9312 14.4905 20.7205 15.013 20.3455 15.3983C19.9704 15.7836 19.4617 16 18.9312 16H2.93124C2.40081 16 1.8921 15.7836 1.51703 15.3983C1.14196 15.013 0.931244 14.4905 0.931244 13.9457Z" stroke="#C2C2C2" stroke-width="1.5"/>
</svg>
